# xmcd
#
# Track frame offsets: 
#        150
#        22789
#        44679
#        62980
#        83239
#        116769
#        140458
#        165553
#        187957
#        212209
#
# Disc length: 3054 seconds
#
# Revision: 0
# Processed by: cddbd v1.5.1PL0 Copyright (c) Steve Scherf et al.
# Submitted via: ExactAudioCopy v0.90b4
#
DISCID=8a0bec0a
DTITLE=Jagjit and Chitra - Magic In Movies [CD 1)
DYEAR=2003
DGENRE=Ghazals
TTITLE0=Jhuki Jhuki Si Nazar (Arth)
TTITLE1=Tum Ko Dekha To Yeh Khayal Aaya (Saath Saath)
TTITLE2=Woh Kagaz Ki Kashti-1 (Aaj)
TTITLE3=Hum To Hain Pardes (Ae Mere Dil)
TTITLE4=Hamsafar Banke Ham (Ashiana)
TTITLE5=Babul Mora Naihar Chhoto Jaye (Aavishkar)
TTITLE6=Mere Dil Mein Tu Hi Tu Hai (Bhavna)
TTITLE7=Ye Bata De Mujhe Zindagi (Saath Saath)
TTITLE8=Tu Nahin To Zindagi Mein Aur Kya (Arth)
TTITLE9=Raakh Ke Dher Ne (Ek Baar Kaho)
EXTD=
EXTT0=
EXTT1=
EXTT2=
EXTT3=
EXTT4=
EXTT5=
EXTT6=
EXTT7=
EXTT8=
EXTT9=
PLAYORDER=
